# xmcd
#
# Track frame offsets:
#	150
#	12641
#	25076
#	39151
#	50457
#	60694
#	73775
#	92231
#	105536
#	121289
#	134734
#	147532
#	160907
#	174108
#	186532
#	198973
#
# Disc length: 2830 seconds
#
# Revision: 1
# Processed by: cddbd v1.5.1PL0 Copyright (c) Steve Scherf et al.
# Submitted via: EasyCDDAExtractor 6.0.0.1
#
DISCID=e70b0c10
DTITLE=B.B. King - Blues Collection 3 (Amiga-LP)
DYEAR=1900
DGENRE=Blues
TTITLE0=Walking Dr. Bill
TTITLE1=Hold That Train
TTITLE2=You'e Breaking My Heart
TTITLE3=Did You Ever Love A Woman
TTITLE4=Going Down Slow
TTITLE5=Sneaking Around
TTITLE6=Swet Sixteen
TTITLE7=Patin' Time
TTITLE8=My Own Fault Darlin'
TTITLE9=Yozu Upset Me Baby
TTITLE10=Bad Luck
TTITLE11=Three O'Clock Blues
TTITLE12=Woke Up This Morning
TTITLE13=Ten Lon Years
TTITLE14=Every Day (I Have The Blues)
TTITLE15=Sweet Little Angel
EXTD=
EXTT0=
EXTT1=
EXTT2=
EXTT3=
EXTT4=
EXTT5=
EXTT6=
EXTT7=
EXTT8=
EXTT9=
EXTT10=
EXTT11=
EXTT12=
EXTT13=
EXTT14=
EXTT15=
PLAYORDER=
